<?xml version="1.0" encoding="UTF-8"?><svg id="Layer_1" xmlns="http://www.w3.org/2000/svg" viewBox="0 0 798.06 833.16"><defs><style>.cls-1{fill:#917b4c;fill-rule:evenodd;}</style></defs><path class="cls-1" d="M381.51,180.03c3.64-16.29,73.12-17.22,68.81,3.12-14.19,67.12-45.71,132.41-69.02,186.9-23.54,55.03-29.41,101.43-16.95,128.74,6.21,13.57,14.24,30.33,32.56,43.91,18.38,13.57,47.52,24.26,96.21,24.26,175.48,0,217.55-145.61,217.55-210.58,0-165.89-112.5-215.33-164.74-245.89-15.72-17.07,5.55-57.93,20.4-59.34,37.5,.46,214.15,90.11,214.15,309.05,0,138.13-121.06,282.82-282.22,282.82-125.41,0-186.95-62.49-207.26-128.45-16.47-53.63,5.51-125.8,34.96-189.01,14.77-31.72,17.51-39.95,27.39-63.38,9.99-23.81,24.12-64.08,28.17-82.14"/><path class="cls-1" d="M493.91,107.08c-17.73,11.36-103.56,9.39-128.47,1.53-18.37-5.75-9.62-77.19,2.63-87.74,15.77-16.15,120.3-16.96,134.52,5.46,8.38,13.11,7.16,70.64-8.68,80.75"/><path class="cls-1" d="M74.61,424.63c2.34,381.1,512.8,409.29,638.12,199.35,7.63-16.71,72.53-19.67,78.88,.78C567.82,985.73,9.88,830.98,9.88,424.63,9.88,235.71,118.79,86.6,289.95,49.8c17.86-4.02,31.49,49.69,15.75,57.14-131.58,31.32-231.93,176.37-231.09,317.68"/></svg>